[Header]
FileType HTR
DataType HTRS
FileVersion 1
NumSegments 64
NumFrames 4
DataFrameRate 24
EulerRotationOrder ZYX
CalibrationUnits mm
RotationUnits Degrees
GlobalAxisofGravity Y
BoneLengthAxis Y
ScaleFactor 1.0
[SegmentNames&Hierarchy]
Hips	GLOBAL
Spine	Hips
Spine1	Spine
Spine2	Spine1
Neck	Spine2
Head	Neck
LeftEye	Head
RightEye	Head
LeftShoulder	Spine2
LeftArm	LeftShoulder
LeftForeArm	LeftArm
LeftHand	LeftForeArm
LeftHandThumb1	LeftHand
LeftHandThumb2	LeftHandThumb1
LeftHandThumb3	LeftHandThumb2
LeftHandThumb4	LeftHandThumb3
LeftHandIndex1	LeftHand
LeftHandIndex2	LeftHandIndex1
LeftHandIndex3	LeftHandIndex2
LeftHandIndex4	LeftHandIndex3
LeftHandMiddle1	LeftHand
LeftHandMiddle2	LeftHandMiddle1
LeftHandMiddle3	LeftHandMiddle2
LeftHandMiddle4	LeftHandMiddle3
LeftHandRing1	LeftHand
LeftHandRing2	LeftHandRing1
LeftHandRing3	LeftHandRing2
LeftHandRing4	LeftHandRing3
LeftHandPinky1	LeftHand
LeftHandPinky2	LeftHandPinky1
LeftHandPinky3	LeftHandPinky2
LeftHandPinky4	LeftHandPinky3
RightShoulder	Spine2
RightArm	RightShoulder
RightForeArm	RightArm
RightHand	RightForeArm
RightHandPinky1	RightHand
RightHandPinky2	RightHandPinky1
RightHandPinky3	RightHandPinky2
RightHandPinky4	RightHandPinky3
RightHandRing1	RightHand
RightHandRing2	RightHandRing1
RightHandRing3	RightHandRing2
RightHandRing4	RightHandRing3
RightHandMiddle1	RightHand
RightHandMiddle2	RightHandMiddle1
RightHandMiddle3	RightHandMiddle2
RightHandMiddle4	RightHandMiddle3
RightHandIndex1	RightHand
RightHandIndex2	RightHandIndex1
RightHandIndex3	RightHandIndex2
RightHandIndex4	RightHandIndex3
RightHandThumb1	RightHand
RightHandThumb2	RightHandThumb1
RightHandThumb3	RightHandThumb2
RightHandThumb4	RightHandThumb3
LeftUpLeg	Hips
LeftLeg	LeftUpLeg
LeftFoot	LeftLeg
LeftToeBase	LeftFoot
RightUpLeg	Hips
RightLeg	RightUpLeg
RightFoot	RightLeg
RightToeBase	RightFoot
[BasePosition]
Hips	0	0	0	0	0	0	1
Spine	0	0	0	0	0	0	1
Spine1	0	0	0	0	0	0	1
Spine2	0	0	0	0	0	0	1
Neck	0	0	0	0	0	0	1
Head	0	0	0	0	0	0	1
LeftEye	0	0	0	0	0	0	1
RightEye	0	0	0	0	0	0	1
LeftShoulder	0	0	0	0	0	0	1
LeftArm	0	0	0	0	0	0	1
LeftForeArm	0	0	0	0	0	0	1
LeftHand	0	0	0	0	0	0	1
LeftHandThumb1	0	0	0	0	0	0	1
LeftHandThumb2	0	0	0	0	0	0	1
LeftHandThumb3	0	0	0	0	0	0	1
LeftHandThumb4	0	0	0	0	0	0	1
LeftHandIndex1	0	0	0	0	0	0	1
LeftHandIndex2	0	0	0	0	0	0	1
LeftHandIndex3	0	0	0	0	0	0	1
LeftHandIndex4	0	0	0	0	0	0	1
LeftHandMiddle1	0	0	0	0	0	0	1
LeftHandMiddle2	0	0	0	0	0	0	1
LeftHandMiddle3	0	0	0	0	0	0	1
LeftHandMiddle4	0	0	0	0	0	0	1
LeftHandRing1	0	0	0	0	0	0	1
LeftHandRing2	0	0	0	0	0	0	1
LeftHandRing3	0	0	0	0	0	0	1
LeftHandRing4	0	0	0	0	0	0	1
LeftHandPinky1	0	0	0	0	0	0	1
LeftHandPinky2	0	0	0	0	0	0	1
LeftHandPinky3	0	0	0	0	0	0	1
LeftHandPinky4	0	0	0	0	0	0	1
RightShoulder	0	0	0	0	0	0	1
RightArm	0	0	0	0	0	0	1
RightForeArm	0	0	0	0	0	0	1
RightHand	0	0	0	0	0	0	1
RightHandPinky1	0	0	0	0	0	0	1
RightHandPinky2	0	0	0	0	0	0	1
RightHandPinky3	0	0	0	0	0	0	1
RightHandPinky4	0	0	0	0	0	0	1
RightHandRing1	0	0	0	0	0	0	1
RightHandRing2	0	0	0	0	0	0	1
RightHandRing3	0	0	0	0	0	0	1
RightHandRing4	0	0	0	0	0	0	1
RightHandMiddle1	0	0	0	0	0	0	1
RightHandMiddle2	0	0	0	0	0	0	1
RightHandMiddle3	0	0	0	0	0	0	1
RightHandMiddle4	0	0	0	0	0	0	1
RightHandIndex1	0	0	0	0	0	0	1
RightHandIndex2	0	0	0	0	0	0	1
RightHandIndex3	0	0	0	0	0	0	1
RightHandIndex4	0	0	0	0	0	0	1
RightHandThumb1	0	0	0	0	0	0	1
RightHandThumb2	0	0	0	0	0	0	1
RightHandThumb3	0	0	0	0	0	0	1
RightHandThumb4	0	0	0	0	0	0	1
LeftUpLeg	0	0	0	0	0	0	1
LeftLeg	0	0	0	0	0	0	1
LeftFoot	0	0	0	0	0	0	1
LeftToeBase	0	0	0	0	0	0	1
RightUpLeg	0	0	0	0	0	0	1
RightLeg	0	0	0	0	0	0	1
RightFoot	0	0	0	0	0	0	1
RightToeBase	0	0	0	0	0	0	1
[Hips]
26	9.208676338	1016.77417	19.00756073	-0.7158550024	1.376895189	-5.654072762	1.0
27	9.406509399	1016.763672	18.90463257	-0.7131539583	1.347882748	-5.666429996	1.0
28	9.611353874	1016.754028	18.80879402	-0.7119296193	1.32485199	-5.678791523	1.0
29	9.855301857	1016.738647	18.70962524	-0.7164341211	1.325176358	-5.692269325	1.0
[Spine]
26	0	101.8159943	1.315000057	1.024959207	-1.261358738	2.9432652	1.0
27	0	101.8159943	1.315000057	1.015352964	-1.26659584	2.947167635	1.0
28	0	101.8159943	1.315000057	1.00518465	-1.272610784	2.950997114	1.0
29	0	101.8159943	1.315000057	0.9937819839	-1.282948732	2.955345154	1.0
[Spine1]
26	0	100.8349991	-10.00800037	0.1555335522	0.1462708861	5.935245037	1.0
27	0	100.8349991	-10.00800037	0.1245096624	0.1424365193	5.93471241	1.0
28	0	100.8349991	-10.00800037	0.09333499521	0.1384956986	5.934011936	1.0
29	0	100.8349991	-10.00800037	0.06123302132	0.1338470429	5.932724476	1.0
[Spine2]
26	0	91	-13.73399925	0.1872768551	0.7194776535	5.843202114	1.0
27	0	91	-13.73399925	0.1560821086	0.7188841701	5.842294693	1.0
28	0	91	-13.73399925	0.1247373521	0.7181755304	5.841214657	1.0
29	0	91	-13.73399925	0.09246745706	0.7167787552	5.839524746	1.0
[Neck]
26	0	166.7169952	-25.16200066	1.41605103	-0.1880922616	-2.237791061	1.0
27	0	166.7169952	-25.16200066	1.424674749	-0.1894536763	-2.236954212	1.0
28	0	166.7169952	-25.16200066	1.431551218	-0.1907579005	-2.235941887	1.0
29	0	166.7169952	-25.16200066	1.429979205	-0.1919293851	-2.234048605	1.0
[Head]
26	0	96.17900085	16.84999847	1.6927948	1.012903214	-8.11489296	1.0
27	0	96.17900085	16.84999847	1.709025383	1.000924587	-8.093553543	1.0
28	0	96.17900085	16.84999847	1.722535968	0.9892852306	-8.072564125	1.0
29	0	96.17900085	16.84999847	1.71807611	0.9779029489	-8.051060677	1.0
[LeftEye]
26	30.6760006	64.09500122	92.83599854	0	0	0	1.0
27	30.6760006	64.09500122	92.83599854	0	0	0	1.0
28	30.6760006	64.09500122	92.83599854	0	0	0	1.0
29	30.6760006	64.09500122	92.83599854	0	0	0	1.0
[RightEye]
26	-30.6760006	64.09500122	92.83499908	0	0	0	1.0
27	-30.6760006	64.09500122	92.83499908	0	0	0	1.0
28	-30.6760006	64.09500122	92.83499908	0	0	0	1.0
29	-30.6760006	64.09500122	92.83499908	0	0	0	1.0
[LeftShoulder]
26	45.70400238	109.4599991	-26.28000069	4.73493576	-13.60214615	-1.090210676	1.0
27	45.70400238	109.4599991	-26.28000069	4.723213673	-13.63009453	-0.79540205	1.0
28	45.70400238	109.4599991	-26.28000069	4.711628437	-13.65682697	-0.5016959906	1.0
29	45.70400238	109.4599991	-26.28000069	4.699563503	-13.68177795	-0.2056209594	1.0
[LeftArm]
26	105.923996	-5.24600029	-22.32099915	-3.258995533	4.539250851	-88.69882965	1.0
27	105.923996	-5.24600029	-22.32099915	-3.250385523	4.547235012	-88.9990921	1.0
28	105.923996	-5.24600029	-22.32099915	-3.241358519	4.55475235	-89.29845428	1.0
29	105.923996	-5.24600029	-22.32099915	-3.226985693	4.555315971	-89.59755707	1.0
[LeftForeArm]
26	278.414978	-0.0009999999311	0	-7.479497071e-06	-14.58731556	-0.0001759998704	1.0
27	278.414978	-0.0009999999311	0	-9.26921075e-06	-14.58743954	-0.0001705651812	1.0
28	278.414978	-0.0009999999311	0	-1.033215267e-05	-14.58650017	-0.00016773057	1.0
29	278.414978	-0.0009999999311	0	-8.105846973e-06	-14.57701683	-0.0001767288195	1.0
[LeftHand]
26	283.2879944	0	0	-28.15796471	-1.04148674	-10.20967388	1.0
27	283.2879944	0	0	-28.14676476	-1.022136092	-10.19633484	1.0
28	283.2879944	0	0	-28.13680077	-1.003852129	-10.18379784	1.0
29	283.2879944	0	0	-28.12290764	-0.9897878766	-10.18038273	1.0
[LeftHandThumb1]
26	24.6609993	-15.75	26.8239994	17.64103508	-4.962322235	9.442225456	1.0
27	24.6609993	-15.75	26.8239994	17.61507797	-5.026607513	9.395754814	1.0
28	24.6609993	-15.75	26.8239994	17.5892334	-5.09073782	9.349422455	1.0
29	24.6609993	-15.75	26.8239994	17.56341171	-5.155333996	9.302866936	1.0
[LeftHandThumb2]
26	32.29800034	-18.64699936	18.64699936	-0.9832406044	31.41764832	-3.151291609	1.0
27	32.29800034	-18.64699936	18.64699936	-1.014033556	31.33717918	-3.168635845	1.0
28	32.29800034	-18.64699936	18.64699936	-1.044729114	31.25692368	-3.18592453	1.0
29	32.29800034	-18.64699936	18.64699936	-1.075545788	31.17617607	-3.203278065	1.0
[LeftHandThumb3]
26	26.52600098	-15.31499958	15.31499958	1.721173763	7.962662697	-0.3530145884	1.0
27	26.52600098	-15.31499958	15.31499958	1.699697495	7.882413864	-0.3725482225	1.0
28	26.52600098	-15.31499958	15.31499958	1.678292751	7.802376747	-0.3920130432	1.0
29	26.52600098	-15.31499958	15.31499958	1.65681982	7.721837521	-0.4115231633	1.0
[LeftHandThumb4]
26	19.54599953	-11.28499985	11.28499985	0	0	0	1.0
27	19.54599953	-11.28499985	11.28499985	0	0	0	1.0
28	19.54599953	-11.28499985	11.28499985	0	0	0	1.0
29	19.54599953	-11.28499985	11.28499985	0	0	0	1.0
[LeftHandIndex1]
26	91.09299469	-5.170999527	22.60099792	-0.3411439359	4.716695786	-8.331269264	1.0
27	91.09299469	-5.170999527	22.60099792	-0.3435111642	4.719423771	-8.360061646	1.0
28	91.09299469	-5.170999527	22.60099792	-0.3458725214	4.722144127	-8.388777733	1.0
29	91.09299469	-5.170999527	22.60099792	-0.3482501209	4.724879265	-8.417669296	1.0
[LeftHandIndex2]
26	36.76399994	0	0	-0.6519050598	2.813784599	-21.05878067	1.0
27	36.76399994	0	0	-0.6533150077	2.816345215	-21.08753204	1.0
28	36.76399994	0	0	-0.6547215581	2.818898201	-21.11620522	1.0
29	36.76399994	0	0	-0.6561381817	2.8214643	-21.14505005	1.0
[LeftHandIndex3]
26	28.83100128	0	0	-0.1185626462	0.8534896374	-10.65538979	1.0
27	28.83100128	0	0	-0.1190948933	0.8563247919	-10.68408108	1.0
28	28.83100128	0	0	-0.1196262166	0.859152317	-10.71269417	1.0
29	28.83100128	0	0	-0.1201631054	0.8619968295	-10.74148083	1.0
[LeftHandIndex4]
26	23.92700005	0	0	0	0	0	1.0
27	23.92700005	0	0	0	0	0	1.0
28	23.92700005	0	0	0	0	0	1.0
29	23.92700005	0	0	0	0	0	1.0
[LeftHandMiddle1]
26	95.33399963	0	0	-1.581014633	8.712944031	-16.37209511	1.0
27	95.33399963	0	0	-1.584529757	8.715015411	-16.40115166	1.0
28	95.33399963	0	0	-1.58803618	8.71708107	-16.43013191	1.0
29	95.33399963	0	0	-1.591565013	8.719154358	-16.45928574	1.0
[LeftHandMiddle2]
26	36.98199844	0	0	-1.460487604	3.859463692	-33.90526581	1.0
27	36.98199844	0	0	-1.462484241	3.861591578	-33.93412018	1.0
28	36.98199844	0	0	-1.464475989	3.863713264	-33.96289825	1.0
29	36.98199844	0	0	-1.466482401	3.865845442	-33.99185181	1.0
[LeftHandMiddle3]
26	29.50900078	0	0	-0.160393402	1.532539845	-12.74971008	1.0
27	29.50900078	0	0	-0.1610757709	1.535313368	-12.77841282	1.0
28	29.50900078	0	0	-0.1617570072	1.538079023	-12.80703831	1.0
29	29.50900078	0	0	-0.1624447852	1.540860176	-12.8358345	1.0
[LeftHandMiddle4]
26	28.3390007	0	0	0	0	0	1.0
27	28.3390007	0	0	0	0	0	1.0
28	28.3390007	0	0	0	0	0	1.0
29	28.3390007	0	0	0	0	0	1.0
[LeftHandRing1]
26	91.04499817	-0.4390000105	-18.65100098	-2.831395864	11.4584465	-25.50916862	1.0
27	91.04499817	-0.4390000105	-18.65100098	-2.82008028	11.45291519	-25.42337608	1.0
28	91.04499817	-0.4390000105	-18.65100098	-2.80879879	11.44739151	-25.33781242	1.0
29	91.04499817	-0.4390000105	-18.65100098	-2.797464371	11.44180202	-25.25174141	1.0
[LeftHandRing2]
26	31.54000092	0	0	-1.111455798	3.942696333	-38.76700211	1.0
27	31.54000092	0	0	-1.106433153	3.9359653	-38.68209076	1.0
28	31.54000092	0	0	-1.101428509	3.929249287	-38.59741211	1.0
29	31.54000092	0	0	-1.096412539	3.922477722	-38.51221466	1.0
[LeftHandRing3]
26	29.37700081	0	0	-0.06041795015	1.765235782	-17.91355133	1.0
27	29.37700081	0	0	-0.058618512	1.757039666	-17.82925224	1.0
28	29.37700081	0	0	-0.05682941526	1.748864412	-17.74518013	1.0
29	29.37700081	0	0	-0.055053249	1.74063468	-17.66059875	1.0
[LeftHandRing4]
26	26.47500038	0	0	0	0	0	1.0
27	26.47500038	0	0	0	0	0	1.0
28	26.47500038	0	0	0	0	0	1.0
29	26.47500038	0	0	0	0	0	1.0
[LeftHandPinky1]
26	80.77799988	-4.887000084	-38.06099701	-4.808314323	16.10487747	-35.41409302	1.0
27	80.77799988	-4.887000084	-38.06099701	-4.783846855	16.10337257	-35.3259964	1.0
28	80.77799988	-4.887000084	-38.06099701	-4.759446144	16.10186195	-35.23813629	1.0
29	80.77799988	-4.887000084	-38.06099701	-4.734906673	16.10030937	-35.14974594	1.0
[LeftHandPinky2]
26	36	0	0	-1.839426041	3.722290754	-44.23321533	1.0
27	36	0	0	-1.833199739	3.716589928	-44.14858246	1.0
28	36	0	0	-1.826993942	3.710900068	-44.06417847	1.0
29	36	0	0	-1.820767641	3.705156565	-43.97925949	1.0
[LeftHandPinky3]
26	21.14200211	0	0	-0.4836502671	2.704053164	-19.10151672	1.0
27	21.14200211	0	0	-0.4801968634	2.696339846	-19.01712799	1.0
28	21.14200211	0	0	-0.476757437	2.688644648	-18.93296623	1.0
29	21.14200211	0	0	-0.4733181	2.680892467	-18.8482914	1.0
[LeftHandPinky4]
26	19.75699997	0	0	0	0	0	1.0
27	19.75699997	0	0	0	0	0	1.0
28	19.75699997	0	0	0	0	0	1.0
29	19.75699997	0	0	0	0	0	1.0
[RightShoulder]
26	-45.70000076	109.4620056	-26.28000069	5.575106144	3.014203072	1.182678223	1.0
27	-45.70000076	109.4620056	-26.28000069	5.618524551	3.019842863	0.8976771832	1.0
28	-45.70000076	109.4620056	-26.28000069	5.661890507	3.024011374	0.6125162244	1.0
29	-45.70000076	109.4620056	-26.28000069	5.705572605	3.022321463	0.319614023	1.0
[RightArm]
26	-105.9280014	-5.248000145	-22.32099915	0.2846384645	1.183213711	72.11604309	1.0
27	-105.9280014	-5.248000145	-22.32099915	0.3007454276	1.170563459	72.40760803	1.0
28	-105.9280014	-5.248000145	-22.32099915	0.3177356124	1.160587668	72.69952393	1.0
29	-105.9280014	-5.248000145	-22.32099915	0.3363841176	1.162150025	72.99934387	1.0
[RightForeArm]
26	-278.414978	0	0	-5.598488428e-08	17.68501854	-1.83554821e-05	1.0
27	-278.414978	0	0	-6.688962344e-07	17.68421555	-2.474129724e-05	1.0
28	-278.414978	0	0	-1.239607059e-06	17.68228722	-2.917208803e-05	1.0
29	-278.414978	0	0	-2.374483302e-06	17.67498207	-3.071048559e-05	1.0
[RightHand]
26	-283.2879944	0	0.0009999999311	-12.9951725	-6.768268585	12.05778503	1.0
27	-283.2879944	0	0.0009999999311	-13.02349091	-6.77294302	12.08244228	1.0
28	-283.2879944	0	0.0009999999311	-13.0436821	-6.775907516	12.10416126	1.0
29	-283.2879944	0	0.0009999999311	-13.03059483	-6.777333736	12.1135397	1.0
[RightHandPinky1]
26	-80.76699829	-4.885000229	-38.06000137	-4.808233261	-16.10599899	35.41441345	1.0
27	-80.76699829	-4.885000229	-38.06000137	-4.783765316	-16.10449409	35.32631683	1.0
28	-80.76699829	-4.885000229	-38.06000137	-4.759365559	-16.10298538	35.23845291	1.0
29	-80.76699829	-4.885000229	-38.06000137	-4.734826565	-16.1014328	35.15006256	1.0
[RightHandPinky2]
26	-36	0	0.0009999999311	-1.838085294	-3.720590591	44.23318863	1.0
27	-36	0	0.0009999999311	-1.831861377	-3.71488905	44.14856339	1.0
28	-36	0	0.0009999999311	-1.825658083	-3.709198713	44.06415939	1.0
29	-36	0	0.0009999999311	-1.819434762	-3.703455448	43.97924805	1.0
[RightHandPinky3]
26	-21.14200211	0	0	-0.7022163272	0.1827587634	20.70117569	1.0
27	-21.14200211	0	0	-0.6985526681	0.1903724074	20.61696243	1.0
28	-21.14200211	0	0	-0.6949037313	0.1979680806	20.53297424	1.0
29	-21.14200211	0	0	-0.6912543774	0.2056203932	20.44847679	1.0
[RightHandPinky4]
26	-19.75699997	0	0	0	0	0	1.0
27	-19.75699997	0	0	0	0	0	1.0
28	-19.75699997	0	0	0	0	0	1.0
29	-19.75699997	0	0	0	0	0	1.0
[RightHandRing1]
26	-91.03599548	-0.4390000105	-18.65100098	-2.831340075	-11.45810699	25.50937271	1.0
27	-91.03599548	-0.4390000105	-18.65100098	-2.820026398	-11.45257664	25.42358208	1.0
28	-91.03599548	-0.4390000105	-18.65100098	-2.808745861	-11.44705296	25.33802223	1.0
29	-91.03599548	-0.4390000105	-18.65100098	-2.797409296	-11.44146156	25.25193214	1.0
[RightHandRing2]
26	-31.54000092	0	0	-1.111279011	-3.942191601	38.76702118	1.0
27	-31.54000092	0	0	-1.106257558	-3.93546176	38.68210602	1.0
28	-31.54000092	0	0	-1.101254106	-3.9287467	38.59742737	1.0
29	-31.54000092	0	0	-1.096239924	-3.921976328	38.51223755	1.0
[RightHandRing3]
26	-29.37700081	0	0	-0.1101919413	0.2289790809	16.3920002	1.0
27	-29.37700081	0	0	-0.1086124331	0.2372184992	16.30776405	1.0
28	-29.37700081	0	0	-0.1070428267	0.2454368919	16.22375298	1.0
29	-29.37700081	0	0	-0.1054885611	0.2537097633	16.13923073	1.0
[RightHandRing4]
26	-26.47500038	0	0	0	0	0	1.0
27	-26.47500038	0	0	0	0	0	1.0
28	-26.47500038	0	0	0	0	0	1.0
29	-26.47500038	0	0	0	0	0	1.0
[RightHandMiddle1]
26	-95.32500458	0	0	-1.580992341	-8.712713242	16.37220955	1.0
27	-95.32500458	0	0	-1.5845083	-8.714785576	16.40126991	1.0
28	-95.32500458	0	0	-1.588015318	-8.716851234	16.43025398	1.0
29	-95.32500458	0	0	-1.591545939	-8.718927383	16.45941544	1.0
[RightHandMiddle2]
26	-36.98199844	0	0	-1.460351229	-3.859017372	33.90530396	1.0
27	-36.98199844	0	0	-1.462347031	-3.861144781	33.93416214	1.0
28	-36.98199844	0	0	-1.464338064	-3.863265991	33.96294022	1.0
29	-36.98199844	0	0	-1.466343403	-3.865398407	33.99189377	1.0
[RightHandMiddle3]
26	-29.50900078	0	0	-0.2677766085	-1.724317789	16.38441277	1.0
27	-29.50900078	0	0	-0.2686337829	-1.727041721	16.41312408	1.0
28	-29.50900078	0	0	-0.2694893181	-1.729758382	16.4417572	1.0
29	-29.50900078	0	0	-0.2703532279	-1.732490778	16.47056198	1.0
[RightHandMiddle4]
26	-28.3390007	0	0.0009999999311	0	0	0	1.0
27	-28.3390007	0	0.0009999999311	0	0	0	1.0
28	-28.3390007	0	0.0009999999311	0	0	0	1.0
29	-28.3390007	0	0.0009999999311	0	0	0	1.0
[RightHandIndex1]
26	-91.08300018	-5.167999744	22.60099792	-0.3411339521	-4.716578484	8.331318855	1.0
27	-91.08300018	-5.167999744	22.60099792	-0.3435023427	-4.719307423	8.360120773	1.0
28	-91.08300018	-5.167999744	22.60099792	-0.3458648026	-4.722028255	8.388843536	1.0
29	-91.08300018	-5.167999744	22.60099792	-0.348243773	-4.72476244	8.417737007	1.0
[RightHandIndex2]
26	-36.76399994	0	0	-0.6518526077	-2.813494921	21.05880356	1.0
27	-36.76399994	0	0	-0.6532621384	-2.816054344	21.08755112	1.0
28	-36.76399994	0	0	-0.6546684504	-2.818606377	21.11622047	1.0
29	-36.76399994	0	0	-0.6560856104	-2.821172714	21.14506721	1.0
[RightHandIndex3]
26	-28.83100128	0	0	-0.2503769994	-0.2047437876	14.32935333	1.0
27	-28.83100128	0	0	-0.2510892749	-0.2075391412	14.35803699	1.0
28	-28.83100128	0	0	-0.2518002689	-0.2103268206	14.38664246	1.0
29	-28.83100128	0	0	-0.2525182068	-0.213130489	14.41541576	1.0
[RightHandIndex4]
26	-23.92700005	0	0	0	0	0	1.0
27	-23.92700005	0	0	0	0	0	1.0
28	-23.92700005	0	0	0	0	0	1.0
29	-23.92700005	0	0	0	0	0	1.0
[RightHandThumb1]
26	-24.64799881	-15.72700024	26.82600021	17.64070511	4.96254158	-9.442466736	1.0
27	-24.64799881	-15.72700024	26.82600021	17.614748	5.026825905	-9.395989418	1.0
28	-24.64799881	-15.72700024	26.82600021	17.58890152	5.090954781	-9.349651337	1.0
29	-24.64799881	-15.72700024	26.82600021	17.56307602	5.155548573	-9.303092003	1.0
[RightHandThumb2]
26	-32.29800034	-18.64699936	18.64699936	-0.9839420915	-31.41630745	3.153059006	1.0
27	-32.29800034	-18.64699936	18.64699936	-1.014728785	-31.33583832	3.170394897	1.0
28	-32.29800034	-18.64699936	18.64699936	-1.045418739	-31.25558281	3.187672615	1.0
29	-32.29800034	-18.64699936	18.64699936	-1.076229692	-31.17483139	3.204999924	1.0
[RightHandThumb3]
26	-26.52600098	-15.31399918	15.31399918	1.519668341	-7.103926182	1.155884862	1.0
27	-26.52600098	-15.31399918	15.31399918	1.499370098	-7.023386955	1.174949169	1.0
28	-26.52600098	-15.31399918	15.31399918	1.479140878	-6.943059444	1.193949699	1.0
29	-26.52600098	-15.31399918	15.31399918	1.458854079	-6.862232685	1.213014483	1.0
[RightHandThumb4]
26	-19.54599953	-11.28499985	11.28499985	0	0	0	1.0
27	-19.54599953	-11.28499985	11.28499985	0	0	0	1.0
28	-19.54599953	-11.28499985	11.28499985	0	0	0	1.0
29	-19.54599953	-11.28499985	11.28499985	0	0	0	1.0
[LeftUpLeg]
26	82.07800293	-67.51699829	-15.99599934	-17.8192749	15.170681	12.05855465	1.0
27	82.07800293	-67.51699829	-15.99599934	-17.82851028	15.17938709	12.06247044	1.0
28	82.07800293	-67.51699829	-15.99599934	-17.8386898	15.18642521	12.06541729	1.0
29	82.07800293	-67.51699829	-15.99599934	-17.85554123	15.18771839	12.06468296	1.0
[LeftLeg]
26	0	-443.7049866	2.845999956	25.47943497	7.628832817	6.183372974	1.0
27	0	-443.7049866	2.845999956	25.50043106	7.631304741	6.183816433	1.0
28	0	-443.7049866	2.845999956	25.52279282	7.633325577	6.184927464	1.0
29	0	-443.7049866	2.845999956	25.55290794	7.633797646	6.188261986	1.0
[LeftFoot]
26	0	-444.2789917	-29.8219986	-4.42595768	2.875688791	-11.13150406	1.0
27	0	-444.2789917	-29.8219986	-4.447273254	2.889136553	-11.1273632	1.0
28	0	-444.2789917	-29.8219986	-4.466610432	2.899279594	-11.12255192	1.0
29	0	-444.2789917	-29.8219986	-4.482113361	2.89682436	-11.11425209	1.0
[LeftToeBase]
26	0	-87.28699493	107.1060028	-0.4774906933	3.463681651e-06	-1.559997827e-06	1.0
27	0	-87.28699493	107.1060028	-0.4772521555	5.12235647e-06	-6.149940646e-07	1.0
28	0	-87.28699493	107.1060028	-0.4765463173	5.297558346e-06	7.608017683e-08	1.0
29	0	-87.28699493	107.1060028	-0.4748586416	-1.264106345e-06	1.966179752e-07	1.0
[RightUpLeg]
26	-82.07800293	-67.51699829	-15.99599934	-1.909740448	-4.547997475	10.95628929	1.0
27	-82.07800293	-67.51699829	-15.99599934	-1.92723906	-4.552028179	10.94932175	1.0
28	-82.07800293	-67.51699829	-15.99599934	-1.943140626	-4.556095123	10.9432621	1.0
29	-82.07800293	-67.51699829	-15.99599934	-1.959999084	-4.561421871	10.94110775	1.0
[RightLeg]
26	0	-443.7049866	2.861999989	11.11266422	-5.431435585	2.253129005	1.0
27	0	-443.7049866	2.861999989	11.1364212	-5.409004688	2.267468214	1.0
28	0	-443.7049866	2.861999989	11.15946674	-5.39198637	2.278604984	1.0
29	0	-443.7049866	2.861999989	11.19000149	-5.399161339	2.276414871	1.0
[RightFoot]
26	0	-444.2770081	-29.83799934	-9.679341316	-0.3165232539	-7.80474329	1.0
27	0	-444.2770081	-29.83799934	-9.68110466	-0.3156259656	-7.801138878	1.0
28	0	-444.2770081	-29.83799934	-9.683523178	-0.3145665526	-7.795382977	1.0
29	0	-444.2770081	-29.83799934	-9.691940308	-0.312923938	-7.780459881	1.0
[RightToeBase]
26	0	-87.28699493	107.1060028	-0.644004941	1.165278604e-06	-1.516104248e-06	1.0
27	0	-87.28699493	107.1060028	-0.6485091448	1.950768592e-06	-1.152850587e-06	1.0
28	0	-87.28699493	107.1060028	-0.6534360647	2.539536581e-06	-6.288070722e-07	1.0
29	0	-87.28699493	107.1060028	-0.6610004902	2.559408586e-06	9.874875104e-07	1.0
[EndOfFile]
